<svg xmlns="http://www.w3.org/2000/svg" id="icoooo-06" width="57" height="57" viewBox="0 0 57 57">
    <defs>
        <style>
            .cls-1{fill:#58595b}.cls-2{fill:#2fb88a}.cls-3{fill:#34b080}
        </style>
    </defs>
    <g id="Group_280" transform="translate(12.428 8.64)">
        <path id="Path_335" d="M63.657 67.378H38.9a3.3 3.3 0 0 1-3.294-3.294v-34.23A3.3 3.3 0 0 1 38.9 26.56h10.64V29.883h-10a.656.656 0 0 0-.656.656V63.4a.656.656 0 0 0 .656.656h23.486a.656.656 0 0 0 .656-.656V30.539a.656.656 0 0 0-.656-.656H53.02l-.007-3.323h10.644a3.3 3.3 0 0 1 3.294 3.294v34.23a3.3 3.3 0 0 1-3.294 3.294zm-24.749-40.34a2.819 2.819 0 0 0-2.816 2.816v34.23a2.819 2.819 0 0 0 2.816 2.816h24.749a2.819 2.819 0 0 0 2.816-2.816v-34.23a2.819 2.819 0 0 0-2.816-2.816H53.5V29.4h9.524a1.134 1.134 0 0 1 1.134 1.134V63.4a1.134 1.134 0 0 1-1.134 1.134H39.538A1.134 1.134 0 0 1 38.4 63.4V30.539a1.134 1.134 0 0 1 1.138-1.139h9.524v-2.358H38.908z" class="cls-1" transform="translate(-35.61 -26.56)"/>
    </g>
    <g id="Group_281" transform="translate(18.547 33.318)">
        <path id="Path_336" d="M55.556 97.211h-3.291a.145.145 0 0 1-.145-.145v-3.291a.145.145 0 0 1 .145-.145h3.291a.145.145 0 0 1 .145.145v3.291a.145.145 0 0 1-.145.145z" class="cls-1" transform="translate(-52.12 -93.63)"/>
    </g>
    <g id="Group_282" transform="translate(19.306 31.606)">
        <path id="Path_337" d="M55.8 93.225a.334.334 0 0 1-.243-.1l-1.192-1.192a.238.238 0 0 1 .337-.337l1.1 1.1 3.776-3.776a.238.238 0 0 1 .337.337l-3.875 3.87a.353.353 0 0 1-.24.098z" class="cls-2" transform="translate(-54.295 -88.845)"/>
    </g>
    <g id="Group_283" transform="translate(18.547 40.349)">
        <path id="Path_338" d="M55.556 116.971h-3.291a.145.145 0 0 1-.145-.145v-3.291a.145.145 0 0 1 .145-.145h3.291a.145.145 0 0 1 .145.145v3.291a.145.145 0 0 1-.145.145z" class="cls-1" transform="translate(-52.12 -113.39)"/>
    </g>
    <g id="Group_284" transform="translate(19.306 38.636)">
        <path id="Path_339" d="M55.8 112.985a.334.334 0 0 1-.243-.1l-1.192-1.192a.238.238 0 0 1 .337-.337l1.1 1.1 3.776-3.776a.238.238 0 0 1 .337.337l-3.874 3.874a.337.337 0 0 1-.241.094z" class="cls-2" transform="translate(-54.295 -108.605)"/>
    </g>
    <g id="Group_285" transform="translate(24.725 33.839)">
        <path id="Path_340" d="M83.07 95.478H70.009a.239.239 0 0 1 0-.478H83.07a.239.239 0 0 1 0 .478z" class="cls-1" transform="translate(-69.77 -95)"/>
    </g>
    <g id="Group_286" transform="translate(24.779 35.912)">
        <path id="Path_341" d="M78.33 101.3h-8.321a.239.239 0 0 1 0-.478h8.321a.239.239 0 1 1 0 .478z" class="cls-1" transform="translate(-69.77 -100.82)"/>
    </g>
    <g id="Group_287" transform="translate(24.725 40.881)">
        <path id="Path_342" d="M83.07 115.248H70.009a.239.239 0 0 1 0-.478H83.07a.239.239 0 0 1 0 .478z" class="cls-1" transform="translate(-69.77 -114.77)"/>
    </g>
    <g id="Group_288" transform="translate(24.779 42.95)">
        <path id="Path_343" d="M78.33 121.058h-8.321a.239.239 0 0 1 0-.478h8.321a.239.239 0 1 1 0 .478z" class="cls-1" transform="translate(-69.77 -120.58)"/>
    </g>
    <g id="Group_289" transform="translate(23.855 20.489)">
        <path id="Path_344" d="M74.974 58h-7.585a.239.239 0 0 1 0-.478h7.582a.239.239 0 0 1 0 .478z" class="cls-1" transform="translate(-67.15 -57.52)"/>
    </g>
    <g id="Group_290" transform="translate(24.176 22.038)">
        <path id="Path_345" d="M75.01 62.348h-6.741a.239.239 0 1 1 0-.478h6.741a.239.239 0 1 1 0 .478z" class="cls-1" transform="translate(-68.03 -61.87)"/>
    </g>
    <g id="Group_291" transform="translate(24.803 24.937)">
        <path id="Path_346" d="M75.8 70.488h-5.791a.239.239 0 0 1 0-.478H75.8a.239.239 0 0 1 .239.239.235.235 0 0 1-.239.239z" class="cls-1" transform="translate(-69.77 -70.01)"/>
    </g>
    <g id="Group_292" transform="translate(23.54 18.903)">
        <path id="Path_347" d="M73.224 58.264h-5.752a.239.239 0 0 1 0-.478h5.751a.089.089 0 0 0 .087-.065l1.207-4.088-8 .051a.239.239 0 0 1-.239-.239.242.242 0 0 1 .239-.243l8.083-.052a.419.419 0 0 1 .333.167.409.409 0 0 1 .065.37l-1.232 4.168a.571.571 0 0 1-.542.409z" class="cls-1" transform="translate(-66.28 -53.15)"/>
    </g>
    <g id="Group_293" transform="translate(21.724 17.543)">
        <path id="Path_348" d="M64.449 57.335a.243.243 0 0 1-.236-.188l-1.529-7.234a.066.066 0 0 0-.065-.054h-1.33a.239.239 0 1 1 0-.478h1.33a.55.55 0 0 1 .536.435l1.529 7.234a.233.233 0 0 1-.236.286z" class="cls-1" transform="translate(-61.05 -49.38)"/>
    </g>
    <g id="Group_294" transform="translate(24.006 24.917)">
        <path id="Path_349" d="M68.734 72.588a1.294 1.294 0 1 1 1.294-1.294 1.295 1.295 0 0 1-1.294 1.294zm0-2.106a.814.814 0 1 0 .812.812.816.816 0 0 0-.812-.812z" class="cls-1" transform="translate(-67.44 -70)"/>
    </g>
    <g id="Group_295" transform="translate(29.488 24.917)">
        <path id="Path_350" d="M84.134 72.588a1.294 1.294 0 1 1 1.294-1.294 1.295 1.295 0 0 1-1.294 1.294zm0-2.106a.814.814 0 1 0 .812.812.816.816 0 0 0-.812-.812z" class="cls-1" transform="translate(-82.84 -70)"/>
    </g>
    <g id="Group_296" transform="translate(25.889 18.903)">
        <path id="Path_351" d="M72.919 58.264a.239.239 0 0 1-.239-.239v-4.636a.239.239 0 0 1 .478 0v4.635a.239.239 0 0 1-.239.24z" class="cls-1" transform="translate(-72.68 -53.15)"/>
    </g>
    <g id="Group_297" transform="translate(28.888 18.903)">
        <path id="Path_352" d="M81.339 58.264a.239.239 0 0 1-.239-.239v-4.636a.239.239 0 0 1 .478 0v4.635a.234.234 0 0 1-.239.24z" class="cls-1" transform="translate(-81.1 -53.15)"/>
    </g>
    <g id="Group_299" transform="translate(23.116 25.859)">
        <g id="Group_298">
            <path id="Path_353" d="M79.246 88.7a36.552 36.552 0 0 1-3.746 3.887.939.939 0 0 1-1.044.145l-1.968-.968a1.5 1.5 0 0 0-1.649.217l-4.055 3.544a1.5 1.5 0 0 0-.018 2.24l2.482 2.243a1.4 1.4 0 0 0 .112.094 1.426 1.426 0 0 0 .333.185 1.405 1.405 0 0 0 .362.094 1.429 1.429 0 0 0 .373 0 1.244 1.244 0 0 0 .275-.058 1.036 1.036 0 0 0 .178-.094c.08-.043.156-.091.236-.138l.261-.152c.094-.054.188-.112.283-.17l.3-.185c.109-.065.217-.134.323-.2s.228-.141.341-.214.239-.152.359-.232.25-.163.373-.246.261-.174.388-.261.268-.181.4-.275.275-.192.413-.286.283-.2.424-.3l.435-.315c.149-.109.294-.217.442-.33s.3-.228.446-.341.3-.236.453-.355.3-.243.457-.366.308-.254.457-.381l.46-.391c.152-.13.308-.268.46-.4s.3-.275.457-.417.3-.283.453-.428.3-.29.449-.439.3-.3.442-.449.294-.3.435-.46.286-.312.428-.471.279-.319.417-.482.25-.3.373-.449c.1-.123.2-.25.3-.377s.2-.254.29-.381.192-.257.283-.384.185-.257.275-.388l.272-.391c.087-.13.178-.261.265-.4s.17-.265.257-.4.167-.265.25-.4.163-.265.243-.4l.236-.4.228-.4c.076-.135.149-.265.221-.4s.145-.265.214-.4l.207-.4.2-.391c.066-.13.13-.261.192-.388s.127-.257.188-.384l.181-.381c.061-.127.116-.25.174-.377l.167-.37c.055-.124.109-.243.159-.366l.152-.337c.051-.116.1-.232.149-.352l.141-.341c.047-.113.091-.221.134-.333s.087-.217.127-.326l.12-.315c.04-.1.076-.2.116-.3l.109-.294c.033-.094.069-.188.1-.283s.065-.181.094-.268.058-.17.091-.257.054-.163.083-.243l.076-.228c.025-.072.047-.145.069-.214l.065-.2c.022-.066.033-.1.047-.152a.65.65 0 0 0 .033-.163 1.459 1.459 0 0 0-.08-.616 1.367 1.367 0 0 0-.167-.333 1.575 1.575 0 0 0-.25-.286c-.036-.033-.076-.062-.112-.091l-2.7-1.968a1.5 1.5 0 0 0-2.189.478l-2.638 4.7a1.493 1.493 0 0 0 .127 1.656l1.355 1.726a.946.946 0 0 1 .08 1.04 29.976 29.976 0 0 1-2.734 4.082z" class="cls-3" transform="translate(-66.033 -74.489)"/>
            <path id="Path_354" d="M69.838 100.218a1.611 1.611 0 0 1-.228-.014 1.846 1.846 0 0 1-.42-.112 1.545 1.545 0 0 1-.384-.217 1.294 1.294 0 0 1-.13-.109l-2.482-2.243a1.738 1.738 0 0 1 .022-2.6l4.055-3.544a1.733 1.733 0 0 1 1.914-.25l1.968.968a.7.7 0 0 0 .779-.109 36 36 0 0 0 3.726-3.86 29.449 29.449 0 0 0 2.7-4.052.7.7 0 0 0-.058-.776l-1.355-1.732a1.723 1.723 0 0 1-.145-1.921l2.631-4.69a1.739 1.739 0 0 1 2.54-.554l2.707 1.968a1.271 1.271 0 0 1 .13.105 1.585 1.585 0 0 1 .29.333 1.853 1.853 0 0 1 .2.388 1.669 1.669 0 0 1 .091.424 1.588 1.588 0 0 1 0 .294.8.8 0 0 1-.043.217L87.1 81.568l-1.316 2.943-1.272 2.389-.236.4c-.08.134-.159.268-.243.4l-.25.4c-.087.134-.17.268-.257.4s-.174.265-.265.4l-.272.4c-.091.13-.185.261-.279.391s-.188.261-.286.388-.2.257-.294.384-.2.254-.3.381c-.123.152-.25.3-.377.457s-.279.326-.424.486-.286.319-.431.475-.294.312-.439.464-.3.3-.446.453-.3.3-.453.442-.3.286-.457.431-.3.279-.46.417-.308.272-.464.406-.308.265-.46.4-.308.257-.46.381l-.457.37-.457.359-.449.344c-.149.112-.294.221-.446.33l-.435.315c-.141.1-.283.2-.428.3l-3.7 2.367a1.82 1.82 0 0 1-.214.112 1.325 1.325 0 0 1-.33.072 1.282 1.282 0 0 0-.205-.007zm1.573-8.785a1.258 1.258 0 0 0-.83.312l-4.055 3.544a1.263 1.263 0 0 0-.018 1.885l2.482 2.243.094.08a1.407 1.407 0 0 0 .279.156 1.214 1.214 0 0 0 .3.08 1.312 1.312 0 0 0 .315 0 .891.891 0 0 0 .217-.043.959.959 0 0 0 .105-.054l2.892-1.8.812-.558.424-.3c.141-.1.286-.207.431-.315s.294-.217.439-.326l.446-.341c.152-.116.3-.236.449-.352s.3-.243.453-.366.3-.25.457-.377.3-.257.457-.391l.457-.4c.152-.138.3-.275.453-.413s.3-.283.449-.424.3-.29.446-.435.294-.3.439-.446l.435-.457q.217-.228.424-.467c.138-.159.279-.315.413-.475l.373-.446c.1-.123.2-.246.294-.373s.2-.25.29-.377l.283-.381c.094-.127.185-.257.275-.384l.268-.391.261-.391c.087-.13.17-.261.254-.4l.246-.4c.08-.13.159-.265.239-.4l1.3-2.37 1.874-4.266.844-2.432a.578.578 0 0 0 .022-.109 1.358 1.358 0 0 0 0-.21 1.5 1.5 0 0 0-.065-.308 1.288 1.288 0 0 0-.141-.283 1.2 1.2 0 0 0-.21-.239 1.04 1.04 0 0 0-.1-.08l-2.7-1.968a1.257 1.257 0 0 0-1.841.4l-2.635 4.7a1.258 1.258 0 0 0 .105 1.392l1.355 1.732a1.182 1.182 0 0 1 .1 1.3 30.247 30.247 0 0 1-2.751 4.121 37.079 37.079 0 0 1-3.776 3.914 1.173 1.173 0 0 1-1.312.181l-1.968-.968a1.15 1.15 0 0 0-.549-.124z" class="cls-1" transform="translate(-65.62 -74.07)"/>
        </g>
    </g>
    <g id="Group_300" transform="translate(29.8 9.452)">
        <path id="Path_355" d="M83.9 29.988a.239.239 0 0 1-.239-.239V26.8a.239.239 0 0 1 .478 0v2.95a.239.239 0 0 1-.239.238z" class="cls-1" transform="translate(-83.66 -26.56)"/>
    </g>
    <g id="Group_301" transform="translate(25.91 9.452)">
        <path id="Path_356" d="M72.979 29.988a.239.239 0 0 1-.239-.239V26.8a.239.239 0 0 1 .478 0v2.95a.239.239 0 0 1-.239.238z" class="cls-1" transform="translate(-72.74 -26.56)"/>
    </g>
    <g id="Group_302">
        <path id="Path_357" d="M28.5 57A28.5 28.5 0 1 1 57 28.5 28.533 28.533 0 0 1 28.5 57zm0-56.53A28.03 28.03 0 1 0 56.53 28.5 28.063 28.063 0 0 0 28.5.47z" class="cls-1"/>
    </g>
    <g id="Group_304" transform="translate(21.272 4.99)">
        <g id="Group_303">
            <path id="Path_358" d="M73.846 19.065a1.566 1.566 0 0 0-1.566-1.475h-1.855a3.16 3.16 0 1 0-6.32 0h-1.856a1.571 1.571 0 0 0-1.566 1.475v4.11h13.163v-4.11zm-6.578-.315a1.16 1.16 0 1 1 1.16-1.16 1.158 1.158 0 0 1-1.159 1.16z" class="cls-3" transform="translate(-60.444 -14.191)"/>
            <path id="Path_359" d="M73.675 22.993H60.03v-4.349a1.809 1.809 0 0 1 1.8-1.714h1.624a3.4 3.4 0 0 1 6.784 0h1.632a1.809 1.809 0 0 1 1.8 1.7v4.363zm-13.166-.478H73.2v-3.86a1.328 1.328 0 0 0-1.323-1.243h-2.102v-.239a2.921 2.921 0 1 0-5.842 0v.239h-2.095a1.33 1.33 0 0 0-1.326 1.25zm6.346-3.947a1.4 1.4 0 1 1 1.4-1.4 1.4 1.4 0 0 1-1.401 1.4zm0-2.316a.921.921 0 1 0 .921.921.919.919 0 0 0-.922-.921z" class="cls-1" transform="translate(-60.03 -13.77)"/>
        </g>
    </g>
</svg>
